<?xml version="1.0" encoding="UTF-8" standalone="no"?>
<!DOCTYPE svg PUBLIC "-//W3C//DTD SVG 1.1//EN"
 "http://www.w3.org/Graphics/SVG/1.1/DTD/svg11.dtd">
<!-- Generated by graphviz version 2.38.0 (20140413.2041)
 -->
<!-- Title: controllers_diagram Pages: 1 -->
<svg width="1595pt" height="1385pt"
 viewBox="0.00 0.00 1595.40 1384.56" xmlns="http://www.w3.org/2000/svg" xmlns:xlink="http://www.w3.org/1999/xlink">
<g id="graph0" class="graph" transform="scale(1 1) rotate(0) translate(808.715 690.153)">
<title>controllers_diagram</title>
<polygon fill="white" stroke="none" points="-808.715,694.407 -808.715,-690.153 786.688,-690.153 786.688,694.407 -808.715,694.407"/>
<!-- _diagram_info -->
<g id="node1" class="node"><title>_diagram_info</title>
<text text-anchor="start" x="583.312" y="630.9" font-family="Times,serif" font-size="13.00">Controllers diagram</text>
<text text-anchor="start" x="583.312" y="643.9" font-family="Times,serif" font-size="13.00">Date: Mar 08 2015 &#45; 14:35</text>
<text text-anchor="start" x="583.312" y="656.9" font-family="Times,serif" font-size="13.00">Migration version: 20150308030541</text>
<text text-anchor="start" x="583.312" y="669.9" font-family="Times,serif" font-size="13.00">Generated by RailRoady 1.3.0</text>
<text text-anchor="start" x="583.312" y="682.9" font-family="Times,serif" font-size="13.00">http://railroady.prestonlee.com</text>
</g>
<!-- ApplicationController -->
<g id="node2" class="node"><title>ApplicationController</title>
<path fill="none" stroke="black" d="M-382.634,199.25C-382.634,199.25 -204.026,199.25 -204.026,199.25 -198.026,199.25 -192.026,193.25 -192.026,187.25 -192.026,187.25 -192.026,107.25 -192.026,107.25 -192.026,101.25 -198.026,95.2499 -204.026,95.2499 -204.026,95.2499 -382.634,95.2499 -382.634,95.2499 -388.634,95.2499 -394.634,101.25 -394.634,107.25 -394.634,107.25 -394.634,187.25 -394.634,187.25 -394.634,193.25 -388.634,199.25 -382.634,199.25"/>
<text text-anchor="middle" x="-293.33" y="110.45" font-family="Times,serif" font-size="14.00">ApplicationController</text>
<polyline fill="none" stroke="black" points="-394.634,117.25 -192.026,117.25 "/>
<text text-anchor="start" x="-386.634" y="132.45" font-family="Times,serif" font-size="14.00">authentication_user_from_token!</text>
<polyline fill="none" stroke="black" points="-394.634,139.25 -192.026,139.25 "/>
<polyline fill="none" stroke="black" points="-394.634,163.25 -192.026,163.25 "/>
<text text-anchor="start" x="-386.634" y="178.45" font-family="Times,serif" font-size="14.00">_layout</text>
<text text-anchor="start" x="-386.634" y="192.45" font-family="Times,serif" font-size="14.00">respond_to_not_found</text>
</g>
<!-- CompanyController -->
<g id="node3" class="node"><title>CompanyController</title>
<path fill="none" stroke="black" d="M-753.194,-427.653C-753.194,-427.653 -635.276,-427.653 -635.276,-427.653 -629.276,-427.653 -623.276,-433.653 -623.276,-439.653 -623.276,-439.653 -623.276,-673.653 -623.276,-673.653 -623.276,-679.653 -629.276,-685.653 -635.276,-685.653 -635.276,-685.653 -753.194,-685.653 -753.194,-685.653 -759.194,-685.653 -765.194,-679.653 -765.194,-673.653 -765.194,-673.653 -765.194,-439.653 -765.194,-439.653 -765.194,-433.653 -759.194,-427.653 -753.194,-427.653"/>
<text text-anchor="middle" x="-694.235" y="-670.453" font-family="Times,serif" font-size="14.00">CompanyController</text>
<polyline fill="none" stroke="black" points="-765.194,-663.653 -623.276,-663.653 "/>
<text text-anchor="start" x="-757.194" y="-648.453" font-family="Times,serif" font-size="14.00">companies</text>
<text text-anchor="start" x="-757.194" y="-634.453" font-family="Times,serif" font-size="14.00">create</text>
<text text-anchor="start" x="-757.194" y="-620.453" font-family="Times,serif" font-size="14.00">destroy</text>
<text text-anchor="start" x="-757.194" y="-606.453" font-family="Times,serif" font-size="14.00">index</text>
<text text-anchor="start" x="-757.194" y="-592.453" font-family="Times,serif" font-size="14.00">ios_create</text>
<text text-anchor="start" x="-757.194" y="-578.453" font-family="Times,serif" font-size="14.00">show</text>
<text text-anchor="start" x="-757.194" y="-564.453" font-family="Times,serif" font-size="14.00">update</text>
<polyline fill="none" stroke="black" points="-765.194,-557.653 -623.276,-557.653 "/>
<polyline fill="none" stroke="black" points="-765.194,-533.653 -623.276,-533.653 "/>
<text text-anchor="start" x="-757.194" y="-518.453" font-family="Times,serif" font-size="14.00">_layout</text>
<text text-anchor="start" x="-757.194" y="-504.453" font-family="Times,serif" font-size="14.00">address_params</text>
<text text-anchor="start" x="-757.194" y="-490.453" font-family="Times,serif" font-size="14.00">create_event_heiarchy</text>
<text text-anchor="start" x="-757.194" y="-476.453" font-family="Times,serif" font-size="14.00">find_company</text>
<text text-anchor="start" x="-757.194" y="-462.453" font-family="Times,serif" font-size="14.00">interview_params</text>
<text text-anchor="start" x="-757.194" y="-448.453" font-family="Times,serif" font-size="14.00">job_params</text>
<text text-anchor="start" x="-757.194" y="-434.453" font-family="Times,serif" font-size="14.00">set_companies</text>
</g>
<!-- ApplicationController&#45;&gt;CompanyController -->
<g id="edge1" class="edge"><title>ApplicationController&#45;&gt;CompanyController</title>
<path fill="none" stroke="black" d="M-322.972,95.2043C-385.876,-15.2409 -534.23,-275.719 -623.19,-431.915"/>
</g>
<!-- EventsController -->
<g id="node4" class="node"><title>EventsController</title>
<path fill="none" stroke="black" d="M-414.474,689.907C-414.474,689.907 -281.742,689.907 -281.742,689.907 -275.742,689.907 -269.742,683.907 -269.742,677.907 -269.742,677.907 -269.742,499.907 -269.742,499.907 -269.742,493.907 -275.742,487.907 -281.742,487.907 -281.742,487.907 -414.474,487.907 -414.474,487.907 -420.474,487.907 -426.474,493.907 -426.474,499.907 -426.474,499.907 -426.474,677.907 -426.474,677.907 -426.474,683.907 -420.474,689.907 -414.474,689.907"/>
<text text-anchor="middle" x="-348.108" y="503.107" font-family="Times,serif" font-size="14.00">EventsController</text>
<polyline fill="none" stroke="black" points="-426.474,509.907 -269.742,509.907 "/>
<text text-anchor="start" x="-418.474" y="525.107" font-family="Times,serif" font-size="14.00">create</text>
<text text-anchor="start" x="-418.474" y="539.107" font-family="Times,serif" font-size="14.00">destroy</text>
<text text-anchor="start" x="-418.474" y="553.107" font-family="Times,serif" font-size="14.00">index</text>
<text text-anchor="start" x="-418.474" y="567.107" font-family="Times,serif" font-size="14.00">upcoming_events</text>
<text text-anchor="start" x="-418.474" y="581.107" font-family="Times,serif" font-size="14.00">update</text>
<polyline fill="none" stroke="black" points="-426.474,587.907 -269.742,587.907 "/>
<polyline fill="none" stroke="black" points="-426.474,611.907 -269.742,611.907 "/>
<text text-anchor="start" x="-418.474" y="627.107" font-family="Times,serif" font-size="14.00">_layout</text>
<text text-anchor="start" x="-418.474" y="641.107" font-family="Times,serif" font-size="14.00">cu</text>
<text text-anchor="start" x="-418.474" y="655.107" font-family="Times,serif" font-size="14.00">post_n</text>
<text text-anchor="start" x="-418.474" y="669.107" font-family="Times,serif" font-size="14.00">pre_n</text>
<text text-anchor="start" x="-418.474" y="683.107" font-family="Times,serif" font-size="14.00">set_users_current_events</text>
</g>
<!-- ApplicationController&#45;&gt;EventsController -->
<g id="edge2" class="edge"><title>ApplicationController&#45;&gt;EventsController</title>
<path fill="none" stroke="black" d="M-299.829,199.648C-308.6,270.368 -324.409,397.828 -335.542,487.589"/>
</g>
<!-- JobsController -->
<g id="node5" class="node"><title>JobsController</title>
<path fill="none" stroke="black" d="M-747.38,56.74C-747.38,56.74 -672.938,56.74 -672.938,56.74 -666.938,56.74 -660.938,50.74 -660.938,44.74 -660.938,44.74 -660.938,-147.26 -660.938,-147.26 -660.938,-153.26 -666.938,-159.26 -672.938,-159.26 -672.938,-159.26 -747.38,-159.26 -747.38,-159.26 -753.38,-159.26 -759.38,-153.26 -759.38,-147.26 -759.38,-147.26 -759.38,44.74 -759.38,44.74 -759.38,50.74 -753.38,56.74 -747.38,56.74"/>
<text text-anchor="middle" x="-710.159" y="-144.06" font-family="Times,serif" font-size="14.00">JobsController</text>
<polyline fill="none" stroke="black" points="-759.38,-137.26 -660.938,-137.26 "/>
<text text-anchor="start" x="-751.38" y="-122.06" font-family="Times,serif" font-size="14.00">create</text>
<text text-anchor="start" x="-751.38" y="-108.06" font-family="Times,serif" font-size="14.00">destroy</text>
<text text-anchor="start" x="-751.38" y="-94.06" font-family="Times,serif" font-size="14.00">index</text>
<text text-anchor="start" x="-751.38" y="-80.06" font-family="Times,serif" font-size="14.00">show</text>
<text text-anchor="start" x="-751.38" y="-66.06" font-family="Times,serif" font-size="14.00">update</text>
<polyline fill="none" stroke="black" points="-759.38,-59.26 -660.938,-59.26 "/>
<polyline fill="none" stroke="black" points="-759.38,-35.26 -660.938,-35.26 "/>
<text text-anchor="start" x="-751.38" y="-20.06" font-family="Times,serif" font-size="14.00">_layout</text>
<text text-anchor="start" x="-751.38" y="-6.05995" font-family="Times,serif" font-size="14.00">job_params</text>
<text text-anchor="start" x="-751.38" y="7.94005" font-family="Times,serif" font-size="14.00">make_cons</text>
<text text-anchor="start" x="-751.38" y="21.94" font-family="Times,serif" font-size="14.00">make_pros</text>
<text text-anchor="start" x="-751.38" y="35.94" font-family="Times,serif" font-size="14.00">set_company</text>
<text text-anchor="start" x="-751.38" y="49.94" font-family="Times,serif" font-size="14.00">set_job</text>
</g>
<!-- ApplicationController&#45;&gt;JobsController -->
<g id="edge3" class="edge"><title>ApplicationController&#45;&gt;JobsController</title>
<path fill="none" stroke="black" d="M-394.765,98.9428C-479.108,58.7752 -595.522,3.33441 -660.747,-27.7279"/>
</g>
<!-- UserProfileController -->
<g id="node8" class="node"><title>UserProfileController</title>
<path fill="none" stroke="black" d="M-792.715,550.876C-792.715,550.876 -679.398,550.876 -679.398,550.876 -673.398,550.876 -667.398,544.876 -667.398,538.876 -667.398,538.876 -667.398,416.876 -667.398,416.876 -667.398,410.876 -673.398,404.876 -679.398,404.876 -679.398,404.876 -792.715,404.876 -792.715,404.876 -798.715,404.876 -804.715,410.876 -804.715,416.876 -804.715,416.876 -804.715,538.876 -804.715,538.876 -804.715,544.876 -798.715,550.876 -792.715,550.876"/>
<text text-anchor="middle" x="-736.057" y="420.076" font-family="Times,serif" font-size="14.00">UserProfileController</text>
<polyline fill="none" stroke="black" points="-804.715,426.876 -667.398,426.876 "/>
<text text-anchor="start" x="-796.715" y="442.076" font-family="Times,serif" font-size="14.00">destroy</text>
<text text-anchor="start" x="-796.715" y="456.076" font-family="Times,serif" font-size="14.00">show</text>
<text text-anchor="start" x="-796.715" y="470.076" font-family="Times,serif" font-size="14.00">update</text>
<polyline fill="none" stroke="black" points="-804.715,476.876 -667.398,476.876 "/>
<polyline fill="none" stroke="black" points="-804.715,500.876 -667.398,500.876 "/>
<text text-anchor="start" x="-796.715" y="516.076" font-family="Times,serif" font-size="14.00">_layout</text>
<text text-anchor="start" x="-796.715" y="530.076" font-family="Times,serif" font-size="14.00">address_params</text>
<text text-anchor="start" x="-796.715" y="544.076" font-family="Times,serif" font-size="14.00">user_params</text>
</g>
<!-- ApplicationController&#45;&gt;UserProfileController -->
<g id="edge6" class="edge"><title>ApplicationController&#45;&gt;UserProfileController</title>
<path fill="none" stroke="black" d="M-362.993,199.274C-446.152,261.377 -584.346,364.58 -667.164,426.428"/>
</g>
<!-- DeviseController -->
<g id="node15" class="node"><title>DeviseController</title>
<path fill="none" stroke="black" d="M66.7572,171.648C66.7572,171.648 211.171,171.648 211.171,171.648 217.171,171.648 223.171,165.648 223.171,159.648 223.171,159.648 223.171,-142.352 223.171,-142.352 223.171,-148.352 217.171,-154.352 211.171,-154.352 211.171,-154.352 66.7572,-154.352 66.7572,-154.352 60.7572,-154.352 54.7572,-148.352 54.7572,-142.352 54.7572,-142.352 54.7572,159.648 54.7572,159.648 54.7572,165.648 60.7572,171.648 66.7572,171.648"/>
<text text-anchor="middle" x="138.964" y="-139.152" font-family="Times,serif" font-size="14.00">DeviseController</text>
<polyline fill="none" stroke="black" points="54.7572,-132.352 223.171,-132.352 "/>
<text text-anchor="start" x="62.7572" y="-117.152" font-family="Times,serif" font-size="14.00">_prefixes</text>
<text text-anchor="start" x="62.7572" y="-103.152" font-family="Times,serif" font-size="14.00">devise_mapping</text>
<text text-anchor="start" x="62.7572" y="-89.1522" font-family="Times,serif" font-size="14.00">resource</text>
<text text-anchor="start" x="62.7572" y="-75.1522" font-family="Times,serif" font-size="14.00">resource_class</text>
<text text-anchor="start" x="62.7572" y="-61.1522" font-family="Times,serif" font-size="14.00">resource_name</text>
<text text-anchor="start" x="62.7572" y="-47.1522" font-family="Times,serif" font-size="14.00">scope_name</text>
<text text-anchor="start" x="62.7572" y="-33.1522" font-family="Times,serif" font-size="14.00">signed_in_resource</text>
<polyline fill="none" stroke="black" points="54.7572,-26.3522 223.171,-26.3522 "/>
<text text-anchor="start" x="62.7572" y="-11.1522" font-family="Times,serif" font-size="14.00">assert_is_devise_resource!</text>
<text text-anchor="start" x="62.7572" y="2.84782" font-family="Times,serif" font-size="14.00">clean_up_passwords</text>
<text text-anchor="start" x="62.7572" y="16.8478" font-family="Times,serif" font-size="14.00">devise_i18n_options</text>
<text text-anchor="start" x="62.7572" y="30.8478" font-family="Times,serif" font-size="14.00">find_message</text>
<text text-anchor="start" x="62.7572" y="44.8478" font-family="Times,serif" font-size="14.00">navigational_formats</text>
<text text-anchor="start" x="62.7572" y="58.8478" font-family="Times,serif" font-size="14.00">require_no_authentication</text>
<text text-anchor="start" x="62.7572" y="72.8478" font-family="Times,serif" font-size="14.00">resource=</text>
<text text-anchor="start" x="62.7572" y="86.8478" font-family="Times,serif" font-size="14.00">resource_params</text>
<text text-anchor="start" x="62.7572" y="100.848" font-family="Times,serif" font-size="14.00">respond_with_navigational</text>
<text text-anchor="start" x="62.7572" y="114.848" font-family="Times,serif" font-size="14.00">set_flash_message</text>
<text text-anchor="start" x="62.7572" y="128.848" font-family="Times,serif" font-size="14.00">successfully_sent?</text>
<text text-anchor="start" x="62.7572" y="142.848" font-family="Times,serif" font-size="14.00">unknown_action!</text>
<polyline fill="none" stroke="black" points="54.7572,149.648 223.171,149.648 "/>
<text text-anchor="start" x="62.7572" y="164.848" font-family="Times,serif" font-size="14.00">_layout</text>
</g>
<!-- ApplicationController&#45;&gt;DeviseController -->
<g id="edge13" class="edge"><title>ApplicationController&#45;&gt;DeviseController</title>
<path fill="none" stroke="black" d="M-191.976,114.754C-116.984,90.71 -16.0216,58.3393 54.5943,35.6985"/>
</g>
<!-- RegistrationsController -->
<g id="node6" class="node"><title>RegistrationsController</title>
<path fill="none" stroke="black" d="M533.707,-507.949C533.707,-507.949 657.135,-507.949 657.135,-507.949 663.135,-507.949 669.135,-513.949 669.135,-519.949 669.135,-519.949 669.135,-599.949 669.135,-599.949 669.135,-605.949 663.135,-611.949 657.135,-611.949 657.135,-611.949 533.707,-611.949 533.707,-611.949 527.707,-611.949 521.707,-605.949 521.707,-599.949 521.707,-599.949 521.707,-519.949 521.707,-519.949 521.707,-513.949 527.707,-507.949 533.707,-507.949"/>
<text text-anchor="middle" x="595.421" y="-596.749" font-family="Times,serif" font-size="14.00">RegistrationsController</text>
<polyline fill="none" stroke="black" points="521.707,-589.949 669.135,-589.949 "/>
<text text-anchor="start" x="529.707" y="-574.749" font-family="Times,serif" font-size="14.00">create</text>
<polyline fill="none" stroke="black" points="521.707,-567.949 669.135,-567.949 "/>
<polyline fill="none" stroke="black" points="521.707,-543.949 669.135,-543.949 "/>
<text text-anchor="start" x="529.707" y="-528.749" font-family="Times,serif" font-size="14.00">_layout</text>
<text text-anchor="start" x="529.707" y="-514.749" font-family="Times,serif" font-size="14.00">user_params</text>
</g>
<!-- SessionsController -->
<g id="node7" class="node"><title>SessionsController</title>
<path fill="none" stroke="black" d="M-265.45,-586.997C-265.45,-586.997 -167.671,-586.997 -167.671,-586.997 -161.671,-586.997 -155.671,-592.997 -155.671,-598.997 -155.671,-598.997 -155.671,-664.997 -155.671,-664.997 -155.671,-670.997 -161.671,-676.997 -167.671,-676.997 -167.671,-676.997 -265.45,-676.997 -265.45,-676.997 -271.45,-676.997 -277.45,-670.997 -277.45,-664.997 -277.45,-664.997 -277.45,-598.997 -277.45,-598.997 -277.45,-592.997 -271.45,-586.997 -265.45,-586.997"/>
<text text-anchor="middle" x="-216.561" y="-661.797" font-family="Times,serif" font-size="14.00">SessionsController</text>
<polyline fill="none" stroke="black" points="-277.45,-654.997 -155.671,-654.997 "/>
<text text-anchor="start" x="-269.45" y="-639.797" font-family="Times,serif" font-size="14.00">create</text>
<polyline fill="none" stroke="black" points="-277.45,-632.997 -155.671,-632.997 "/>
<polyline fill="none" stroke="black" points="-277.45,-608.997 -155.671,-608.997 "/>
<text text-anchor="start" x="-269.45" y="-593.797" font-family="Times,serif" font-size="14.00">_layout</text>
</g>
<!-- Devise::ConfirmationsController -->
<g id="node9" class="node"><title>Devise::ConfirmationsController</title>
<path fill="none" stroke="black" d="M485.917,553.592C485.917,553.592 770.29,553.592 770.29,553.592 776.29,553.592 782.29,547.592 782.29,541.592 782.29,541.592 782.29,435.592 782.29,435.592 782.29,429.592 776.29,423.592 770.29,423.592 770.29,423.592 485.917,423.592 485.917,423.592 479.917,423.592 473.917,429.592 473.917,435.592 473.917,435.592 473.917,541.592 473.917,541.592 473.917,547.592 479.917,553.592 485.917,553.592"/>
<text text-anchor="middle" x="628.103" y="438.792" font-family="Times,serif" font-size="14.00">Devise::ConfirmationsController</text>
<polyline fill="none" stroke="black" points="473.917,445.592 782.29,445.592 "/>
<text text-anchor="start" x="481.917" y="460.792" font-family="Times,serif" font-size="14.00">create</text>
<text text-anchor="start" x="481.917" y="474.792" font-family="Times,serif" font-size="14.00">new</text>
<text text-anchor="start" x="481.917" y="488.792" font-family="Times,serif" font-size="14.00">show</text>
<polyline fill="none" stroke="black" points="473.917,495.592 782.29,495.592 "/>
<text text-anchor="start" x="481.917" y="510.792" font-family="Times,serif" font-size="14.00">after_confirmation_path_for</text>
<text text-anchor="start" x="481.917" y="524.792" font-family="Times,serif" font-size="14.00">after_resending_confirmation_instructions_path_for</text>
<polyline fill="none" stroke="black" points="473.917,531.592 782.29,531.592 "/>
<text text-anchor="start" x="481.917" y="546.792" font-family="Times,serif" font-size="14.00">_layout</text>
</g>
<!-- Devise::OmniauthCallbacksController -->
<g id="node10" class="node"><title>Devise::OmniauthCallbacksController</title>
<path fill="none" stroke="black" d="M-141.27,548.304C-141.27,548.304 66.1301,548.304 66.1301,548.304 72.1301,548.304 78.1301,542.304 78.1301,536.304 78.1301,536.304 78.1301,430.304 78.1301,430.304 78.1301,424.304 72.1301,418.304 66.1301,418.304 66.1301,418.304 -141.27,418.304 -141.27,418.304 -147.27,418.304 -153.27,424.304 -153.27,430.304 -153.27,430.304 -153.27,536.304 -153.27,536.304 -153.27,542.304 -147.27,548.304 -141.27,548.304"/>
<text text-anchor="middle" x="-37.57" y="433.504" font-family="Times,serif" font-size="14.00">Devise::OmniauthCallbacksController</text>
<polyline fill="none" stroke="black" points="-153.27,440.304 78.1301,440.304 "/>
<text text-anchor="start" x="-145.27" y="455.504" font-family="Times,serif" font-size="14.00">failure</text>
<text text-anchor="start" x="-145.27" y="469.504" font-family="Times,serif" font-size="14.00">passthru</text>
<polyline fill="none" stroke="black" points="-153.27,476.304 78.1301,476.304 "/>
<text text-anchor="start" x="-145.27" y="491.504" font-family="Times,serif" font-size="14.00">after_omniauth_failure_path_for</text>
<text text-anchor="start" x="-145.27" y="505.504" font-family="Times,serif" font-size="14.00">failed_strategy</text>
<text text-anchor="start" x="-145.27" y="519.504" font-family="Times,serif" font-size="14.00">failure_message</text>
<polyline fill="none" stroke="black" points="-153.27,526.304 78.1301,526.304 "/>
<text text-anchor="start" x="-145.27" y="541.504" font-family="Times,serif" font-size="14.00">_layout</text>
</g>
<!-- Devise::PasswordsController -->
<g id="node11" class="node"><title>Devise::PasswordsController</title>
<path fill="none" stroke="black" d="M109.557,608.731C109.557,608.731 397.82,608.731 397.82,608.731 403.82,608.731 409.82,602.731 409.82,596.731 409.82,596.731 409.82,448.731 409.82,448.731 409.82,442.731 403.82,436.731 397.82,436.731 397.82,436.731 109.557,436.731 109.557,436.731 103.557,436.731 97.5571,442.731 97.5571,448.731 97.5571,448.731 97.5571,596.731 97.5571,596.731 97.5571,602.731 103.557,608.731 109.557,608.731"/>
<text text-anchor="middle" x="253.688" y="451.931" font-family="Times,serif" font-size="14.00">Devise::PasswordsController</text>
<polyline fill="none" stroke="black" points="97.5571,458.731 409.82,458.731 "/>
<text text-anchor="start" x="105.557" y="473.931" font-family="Times,serif" font-size="14.00">create</text>
<text text-anchor="start" x="105.557" y="487.931" font-family="Times,serif" font-size="14.00">edit</text>
<text text-anchor="start" x="105.557" y="501.931" font-family="Times,serif" font-size="14.00">new</text>
<text text-anchor="start" x="105.557" y="515.931" font-family="Times,serif" font-size="14.00">update</text>
<polyline fill="none" stroke="black" points="97.5571,522.731 409.82,522.731 "/>
<text text-anchor="start" x="105.557" y="537.931" font-family="Times,serif" font-size="14.00">after_resetting_password_path_for</text>
<text text-anchor="start" x="105.557" y="551.931" font-family="Times,serif" font-size="14.00">after_sending_reset_password_instructions_path_for</text>
<text text-anchor="start" x="105.557" y="565.931" font-family="Times,serif" font-size="14.00">assert_reset_token_passed</text>
<text text-anchor="start" x="105.557" y="579.931" font-family="Times,serif" font-size="14.00">unlockable?</text>
<polyline fill="none" stroke="black" points="97.5571,586.731 409.82,586.731 "/>
<text text-anchor="start" x="105.557" y="601.931" font-family="Times,serif" font-size="14.00">_layout</text>
</g>
<!-- Devise::RegistrationsController -->
<g id="node12" class="node"><title>Devise::RegistrationsController</title>
<path fill="none" stroke="black" d="M496.9,101.556C496.9,101.556 671.617,101.556 671.617,101.556 677.617,101.556 683.617,95.5562 683.617,89.5562 683.617,89.5562 683.617,-170.444 683.617,-170.444 683.617,-176.444 677.617,-182.444 671.617,-182.444 671.617,-182.444 496.9,-182.444 496.9,-182.444 490.9,-182.444 484.9,-176.444 484.9,-170.444 484.9,-170.444 484.9,89.5562 484.9,89.5562 484.9,95.5562 490.9,101.556 496.9,101.556"/>
<text text-anchor="middle" x="584.259" y="-167.244" font-family="Times,serif" font-size="14.00">Devise::RegistrationsController</text>
<polyline fill="none" stroke="black" points="484.9,-160.444 683.617,-160.444 "/>
<text text-anchor="start" x="492.9" y="-145.244" font-family="Times,serif" font-size="14.00">cancel</text>
<text text-anchor="start" x="492.9" y="-131.244" font-family="Times,serif" font-size="14.00">create</text>
<text text-anchor="start" x="492.9" y="-117.244" font-family="Times,serif" font-size="14.00">destroy</text>
<text text-anchor="start" x="492.9" y="-103.244" font-family="Times,serif" font-size="14.00">edit</text>
<text text-anchor="start" x="492.9" y="-89.2438" font-family="Times,serif" font-size="14.00">new</text>
<text text-anchor="start" x="492.9" y="-75.2438" font-family="Times,serif" font-size="14.00">update</text>
<polyline fill="none" stroke="black" points="484.9,-68.4438 683.617,-68.4438 "/>
<text text-anchor="start" x="492.9" y="-53.2438" font-family="Times,serif" font-size="14.00">account_update_params</text>
<text text-anchor="start" x="492.9" y="-39.2438" font-family="Times,serif" font-size="14.00">after_inactive_sign_up_path_for</text>
<text text-anchor="start" x="492.9" y="-25.2438" font-family="Times,serif" font-size="14.00">after_sign_up_path_for</text>
<text text-anchor="start" x="492.9" y="-11.2438" font-family="Times,serif" font-size="14.00">after_update_path_for</text>
<text text-anchor="start" x="492.9" y="2.75622" font-family="Times,serif" font-size="14.00">authenticate_scope!</text>
<text text-anchor="start" x="492.9" y="16.7562" font-family="Times,serif" font-size="14.00">build_resource</text>
<text text-anchor="start" x="492.9" y="30.7562" font-family="Times,serif" font-size="14.00">sign_up</text>
<text text-anchor="start" x="492.9" y="44.7562" font-family="Times,serif" font-size="14.00">sign_up_params</text>
<text text-anchor="start" x="492.9" y="58.7562" font-family="Times,serif" font-size="14.00">update_needs_confirmation?</text>
<text text-anchor="start" x="492.9" y="72.7562" font-family="Times,serif" font-size="14.00">update_resource</text>
<polyline fill="none" stroke="black" points="484.9,79.5562 683.617,79.5562 "/>
<text text-anchor="start" x="492.9" y="94.7562" font-family="Times,serif" font-size="14.00">_layout</text>
</g>
<!-- Devise::RegistrationsController&#45;&gt;RegistrationsController -->
<g id="edge4" class="edge"><title>Devise::RegistrationsController&#45;&gt;RegistrationsController</title>
<path fill="none" stroke="black" d="M587.316,-182.744C589.633,-290.588 592.686,-432.648 594.303,-507.92"/>
</g>
<!-- Devise::SessionsController -->
<g id="node13" class="node"><title>Devise::SessionsController</title>
<path fill="none" stroke="black" d="M-309.256,-131.2C-309.256,-131.2 -164.821,-131.2 -164.821,-131.2 -158.821,-131.2 -152.821,-137.2 -152.821,-143.2 -152.821,-143.2 -152.821,-305.2 -152.821,-305.2 -152.821,-311.2 -158.821,-317.2 -164.821,-317.2 -164.821,-317.2 -309.256,-317.2 -309.256,-317.2 -315.256,-317.2 -321.256,-311.2 -321.256,-305.2 -321.256,-305.2 -321.256,-143.2 -321.256,-143.2 -321.256,-137.2 -315.256,-131.2 -309.256,-131.2"/>
<text text-anchor="middle" x="-237.038" y="-302" font-family="Times,serif" font-size="14.00">Devise::SessionsController</text>
<polyline fill="none" stroke="black" points="-321.256,-295.2 -152.821,-295.2 "/>
<text text-anchor="start" x="-313.256" y="-280" font-family="Times,serif" font-size="14.00">create</text>
<text text-anchor="start" x="-313.256" y="-266" font-family="Times,serif" font-size="14.00">destroy</text>
<text text-anchor="start" x="-313.256" y="-252" font-family="Times,serif" font-size="14.00">new</text>
<polyline fill="none" stroke="black" points="-321.256,-245.2 -152.821,-245.2 "/>
<text text-anchor="start" x="-313.256" y="-230" font-family="Times,serif" font-size="14.00">auth_options</text>
<text text-anchor="start" x="-313.256" y="-216" font-family="Times,serif" font-size="14.00">serialize_options</text>
<text text-anchor="start" x="-313.256" y="-202" font-family="Times,serif" font-size="14.00">sign_in_params</text>
<polyline fill="none" stroke="black" points="-321.256,-195.2 -152.821,-195.2 "/>
<text text-anchor="start" x="-313.256" y="-180" font-family="Times,serif" font-size="14.00">_layout</text>
<text text-anchor="start" x="-313.256" y="-166" font-family="Times,serif" font-size="14.00">all_signed_out?</text>
<text text-anchor="start" x="-313.256" y="-152" font-family="Times,serif" font-size="14.00">respond_to_on_destroy</text>
<text text-anchor="start" x="-313.256" y="-138" font-family="Times,serif" font-size="14.00">verify_signed_out_user</text>
</g>
<!-- Devise::SessionsController&#45;&gt;SessionsController -->
<g id="edge5" class="edge"><title>Devise::SessionsController&#45;&gt;SessionsController</title>
<path fill="none" stroke="black" d="M-232.366,-317.246C-228.134,-401.519 -222.08,-522.091 -218.83,-586.813"/>
</g>
<!-- Devise::UnlocksController -->
<g id="node14" class="node"><title>Devise::UnlocksController</title>
<path fill="none" stroke="black" d="M50.7221,-449.746C50.7221,-449.746 290.778,-449.746 290.778,-449.746 296.778,-449.746 302.778,-455.746 302.778,-461.746 302.778,-461.746 302.778,-567.746 302.778,-567.746 302.778,-573.746 296.778,-579.746 290.778,-579.746 290.778,-579.746 50.7221,-579.746 50.7221,-579.746 44.7221,-579.746 38.7221,-573.746 38.7221,-567.746 38.7221,-567.746 38.7221,-461.746 38.7221,-461.746 38.7221,-455.746 44.7221,-449.746 50.7221,-449.746"/>
<text text-anchor="middle" x="170.75" y="-564.546" font-family="Times,serif" font-size="14.00">Devise::UnlocksController</text>
<polyline fill="none" stroke="black" points="38.7221,-557.746 302.778,-557.746 "/>
<text text-anchor="start" x="46.7221" y="-542.546" font-family="Times,serif" font-size="14.00">create</text>
<text text-anchor="start" x="46.7221" y="-528.546" font-family="Times,serif" font-size="14.00">new</text>
<text text-anchor="start" x="46.7221" y="-514.546" font-family="Times,serif" font-size="14.00">show</text>
<polyline fill="none" stroke="black" points="38.7221,-507.746 302.778,-507.746 "/>
<text text-anchor="start" x="46.7221" y="-492.546" font-family="Times,serif" font-size="14.00">after_sending_unlock_instructions_path_for</text>
<text text-anchor="start" x="46.7221" y="-478.546" font-family="Times,serif" font-size="14.00">after_unlock_path_for</text>
<polyline fill="none" stroke="black" points="38.7221,-471.746 302.778,-471.746 "/>
<text text-anchor="start" x="46.7221" y="-456.546" font-family="Times,serif" font-size="14.00">_layout</text>
</g>
<!-- DeviseController&#45;&gt;Devise::ConfirmationsController -->
<g id="edge7" class="edge"><title>DeviseController&#45;&gt;Devise::ConfirmationsController</title>
<path fill="none" stroke="black" d="M223.329,91.4263C319.254,185.548 473.89,337.278 561.657,423.395"/>
</g>
<!-- DeviseController&#45;&gt;Devise::OmniauthCallbacksController -->
<g id="edge8" class="edge"><title>DeviseController&#45;&gt;Devise::OmniauthCallbacksController</title>
<path fill="none" stroke="black" d="M78.3346,171.665C46.856,256.303 10.1615,354.966 -13.3678,418.23"/>
</g>
<!-- DeviseController&#45;&gt;Devise::PasswordsController -->
<g id="edge9" class="edge"><title>DeviseController&#45;&gt;Devise::PasswordsController</title>
<path fill="none" stroke="black" d="M175.342,171.66C194.965,259.591 218.388,364.55 234.481,436.661"/>
</g>
<!-- DeviseController&#45;&gt;Devise::RegistrationsController -->
<g id="edge10" class="edge"><title>DeviseController&#45;&gt;Devise::RegistrationsController</title>
<path fill="none" stroke="black" d="M223.244,-0.643645C297.625,-8.84382 406.141,-20.8072 484.764,-29.475"/>
</g>
<!-- DeviseController&#45;&gt;Devise::SessionsController -->
<g id="edge11" class="edge"><title>DeviseController&#45;&gt;Devise::SessionsController</title>
<path fill="none" stroke="black" d="M54.5819,-43.6077C-7.23445,-81.8889 -90.7866,-133.63 -152.613,-171.918"/>
</g>
<!-- DeviseController&#45;&gt;Devise::UnlocksController -->
<g id="edge12" class="edge"><title>DeviseController&#45;&gt;Devise::UnlocksController</title>
<path fill="none" stroke="black" d="M148.869,-154.446C154.927,-254.2 162.345,-376.343 166.801,-449.725"/>
</g>
</g>
</svg>
