<?xml version="1.0" encoding="UTF-8" standalone="no"?>
<!DOCTYPE svg PUBLIC "-//W3C//DTD SVG 1.1//EN"
 "http://www.w3.org/Graphics/SVG/1.1/DTD/svg11.dtd">
<!-- Generated by graphviz version 2.38.0 (20140413.2041)
 -->
<!-- Title: models_diagram Pages: 1 -->
<svg width="562pt" height="513pt"
 viewBox="0.00 0.00 561.60 513.00" xmlns="http://www.w3.org/2000/svg" xmlns:xlink="http://www.w3.org/1999/xlink">
<g id="graph0" class="graph" transform="scale(1 1) rotate(0) translate(4 509)">
<title>models_diagram</title>
<polygon fill="white" stroke="none" points="-4,4 -4,-509 557.598,-509 557.598,4 -4,4"/>
<!-- _diagram_info -->
<g id="node1" class="node"><title>_diagram_info</title>
<text text-anchor="start" x="35.3123" y="-490.6" font-family="Times,serif" font-size="13.00">Models diagram</text>
<text text-anchor="start" x="35.3123" y="-477.6" font-family="Times,serif" font-size="13.00">Date: Mar 08 2015 &#45; 14:35</text>
<text text-anchor="start" x="35.3123" y="-464.6" font-family="Times,serif" font-size="13.00">Migration version: 20150308030541</text>
<text text-anchor="start" x="35.3123" y="-451.6" font-family="Times,serif" font-size="13.00">Generated by RailRoady 1.3.0</text>
<text text-anchor="start" x="35.3123" y="-438.6" font-family="Times,serif" font-size="13.00">http://railroady.prestonlee.com</text>
</g>
<!-- Address -->
<g id="node2" class="node"><title>Address</title>
<ellipse fill="none" stroke="black" cx="213" cy="-18" rx="39.18" ry="18"/>
<text text-anchor="middle" x="213" y="-13.8" font-family="Times,serif" font-size="14.00">Address</text>
</g>
<!-- Company -->
<g id="node3" class="node"><title>Company</title>
<ellipse fill="none" stroke="black" cx="262" cy="-306" rx="44.4923" ry="18"/>
<text text-anchor="middle" x="262" y="-301.8" font-family="Times,serif" font-size="14.00">Company</text>
</g>
<!-- Job -->
<g id="node7" class="node"><title>Job</title>
<ellipse fill="none" stroke="black" cx="262" cy="-234" rx="27" ry="18"/>
<text text-anchor="middle" x="262" y="-229.8" font-family="Times,serif" font-size="14.00">Job</text>
</g>
<!-- Company&#45;&gt;Job -->
<g id="edge2" class="edge"><title>Company&#45;&gt;Job</title>
<path fill="none" stroke="#64e92d" d="M262,-279.64C262,-274.063 262,-268.132 262,-262.476"/>
<ellipse fill="none" stroke="#64e92d" cx="262" cy="-283.697" rx="4" ry="4"/>
<polygon fill="#64e92d" stroke="#64e92d" points="262,-262.104 266.5,-252.104 262,-257.104 262,-252.104 262,-252.104 262,-252.104 262,-257.104 257.5,-252.104 262,-262.104 262,-262.104"/>
</g>
<!-- Con -->
<g id="node4" class="node"><title>Con</title>
<ellipse fill="none" stroke="black" cx="318" cy="-162" rx="27" ry="18"/>
<text text-anchor="middle" x="318" y="-157.8" font-family="Times,serif" font-size="14.00">Con</text>
</g>
<!-- Contact -->
<g id="node5" class="node"><title>Contact</title>
<ellipse fill="none" stroke="black" cx="92" cy="-90" rx="37.7266" ry="18"/>
<text text-anchor="middle" x="92" y="-85.8" font-family="Times,serif" font-size="14.00">Contact</text>
</g>
<!-- Contact&#45;&gt;Address -->
<g id="edge5" class="edge"><title>Contact&#45;&gt;Address</title>
<path fill="none" stroke="#03e645" d="M122.133,-71.5679C139.911,-61.2831 162.412,-48.266 180.575,-37.7583"/>
<ellipse fill="none" stroke="#03e645" cx="118.506" cy="-73.6657" rx="4.00002" ry="4.00002"/>
<polygon fill="#03e645" stroke="#03e645" points="180.974,-37.5276 191.883,-36.4152 185.302,-35.0238 189.63,-32.52 189.63,-32.52 189.63,-32.52 185.302,-35.0238 187.376,-28.6249 180.974,-37.5276 180.974,-37.5276"/>
</g>
<!-- Event -->
<g id="node6" class="node"><title>Event</title>
<ellipse fill="none" stroke="black" cx="125" cy="-162" rx="30.9706" ry="18"/>
<text text-anchor="middle" x="125" y="-157.8" font-family="Times,serif" font-size="14.00">Event</text>
</g>
<!-- Event&#45;&gt;Contact -->
<g id="edge7" class="edge"><title>Event&#45;&gt;Contact</title>
<path fill="none" stroke="#7948f7" d="M113.715,-137.062C110.684,-130.632 107.391,-123.647 104.307,-117.106"/>
<ellipse fill="none" stroke="#7948f7" cx="115.474" cy="-140.793" rx="4.00002" ry="4.00002"/>
<polygon fill="#7948f7" stroke="#7948f7" points="104.258,-117.001 104.064,-106.037 102.126,-112.479 99.9936,-107.956 99.9936,-107.956 99.9936,-107.956 102.126,-112.479 95.9233,-109.875 104.258,-117.001 104.258,-117.001"/>
</g>
<!-- Job&#45;&gt;Address -->
<g id="edge10" class="edge"><title>Job&#45;&gt;Address</title>
<path fill="none" stroke="#49440f" d="M256.258,-207.924C246.81,-166.659 228.095,-84.925 218.684,-43.8249"/>
<ellipse fill="none" stroke="#49440f" cx="257.18" cy="-211.95" rx="4.00001" ry="4.00001"/>
<ellipse fill="#49440f" stroke="#49440f" cx="217.771" cy="-39.8345" rx="4.00001" ry="4.00001"/>
</g>
<!-- Job&#45;&gt;Con -->
<g id="edge12" class="edge"><title>Job&#45;&gt;Con</title>
<path fill="none" stroke="#b01181" d="M279.273,-211.409C285.667,-203.417 292.94,-194.325 299.443,-186.196"/>
<ellipse fill="none" stroke="#b01181" cx="276.65" cy="-214.688" rx="4.00002" ry="4.00002"/>
<polygon fill="#b01181" stroke="#b01181" points="299.626,-185.968 309.386,-180.97 302.749,-182.064 305.873,-178.159 305.873,-178.159 305.873,-178.159 302.749,-182.064 302.359,-175.348 299.626,-185.968 299.626,-185.968"/>
</g>
<!-- Job&#45;&gt;Event -->
<g id="edge9" class="edge"><title>Job&#45;&gt;Event</title>
<path fill="none" stroke="#8b5ced" d="M233.981,-218.683C211.483,-207.188 179.899,-191.051 156.522,-179.106"/>
<ellipse fill="none" stroke="#8b5ced" cx="237.631" cy="-220.548" rx="4.00002" ry="4.00002"/>
<polygon fill="#8b5ced" stroke="#8b5ced" points="156.276,-178.981 149.419,-170.423 151.824,-176.706 147.371,-174.431 147.371,-174.431 147.371,-174.431 151.824,-176.706 145.324,-178.438 156.276,-178.981 156.276,-178.981"/>
</g>
<!-- Pro -->
<g id="node8" class="node"><title>Pro</title>
<ellipse fill="none" stroke="black" cx="392" cy="-162" rx="27" ry="18"/>
<text text-anchor="middle" x="392" y="-157.8" font-family="Times,serif" font-size="14.00">Pro</text>
</g>
<!-- Job&#45;&gt;Pro -->
<g id="edge11" class="edge"><title>Job&#45;&gt;Pro</title>
<path fill="none" stroke="#c59af6" d="M289.54,-218.171C310.966,-206.634 340.638,-190.657 362.538,-178.864"/>
<ellipse fill="none" stroke="#c59af6" cx="285.834" cy="-220.166" rx="4.00002" ry="4.00002"/>
<polygon fill="#c59af6" stroke="#c59af6" points="362.596,-178.833 373.535,-178.054 366.999,-176.462 371.401,-174.092 371.401,-174.092 371.401,-174.092 366.999,-176.462 369.268,-170.13 362.596,-178.833 362.596,-178.833"/>
</g>
<!-- Resume -->
<g id="node9" class="node"><title>Resume</title>
<ellipse fill="none" stroke="black" cx="515" cy="-378" rx="38.6955" ry="18"/>
<text text-anchor="middle" x="515" y="-373.8" font-family="Times,serif" font-size="14.00">Resume</text>
</g>
<!-- User -->
<g id="node10" class="node"><title>User</title>
<ellipse fill="none" stroke="black" cx="171" cy="-378" rx="27" ry="18"/>
<text text-anchor="middle" x="171" y="-373.8" font-family="Times,serif" font-size="14.00">User</text>
</g>
<!-- User&#45;&gt;Address -->
<g id="edge16" class="edge"><title>User&#45;&gt;Address</title>
<path fill="none" stroke="#b15647" d="M173.983,-351.577C181.713,-285.687 202.328,-109.965 210.037,-44.2588"/>
<ellipse fill="none" stroke="#b15647" cx="173.492" cy="-355.76" rx="4.00001" ry="4.00001"/>
<ellipse fill="#b15647" stroke="#b15647" cx="210.528" cy="-40.0666" rx="4.00001" ry="4.00001"/>
</g>
<!-- User&#45;&gt;Company -->
<g id="edge18" class="edge"><title>User&#45;&gt;Company</title>
<path fill="none" stroke="#540c6b" d="M194.577,-358.864C206.676,-349.557 221.493,-338.16 234.152,-328.422"/>
<ellipse fill="none" stroke="#540c6b" cx="191.287" cy="-361.395" rx="4.00002" ry="4.00002"/>
<polygon fill="#540c6b" stroke="#540c6b" points="234.182,-328.398 244.852,-325.868 238.146,-325.35 242.109,-322.301 242.109,-322.301 242.109,-322.301 238.146,-325.35 239.365,-318.734 234.182,-328.398 234.182,-328.398"/>
</g>
<!-- User&#45;&gt;Contact -->
<g id="edge17" class="edge"><title>User&#45;&gt;Contact</title>
<path fill="none" stroke="#178178" d="M150.379,-356.907C141.801,-347.585 132.377,-335.937 126,-324 94.6439,-265.307 94.1994,-245.905 85,-180 82.017,-158.63 84.3486,-134.181 87.0967,-116.323"/>
<ellipse fill="none" stroke="#178178" cx="153.379" cy="-360.064" rx="4.00002" ry="4.00002"/>
<ellipse fill="#178178" stroke="#178178" cx="87.8023" cy="-112.074" rx="4.00001" ry="4.00001"/>
</g>
<!-- User&#45;&gt;Event -->
<g id="edge20" class="edge"><title>User&#45;&gt;Event</title>
<path fill="none" stroke="#2246a0" d="M154.132,-355.174C147.97,-346.035 141.627,-334.991 138,-324 123.157,-279.02 122.242,-223.308 123.336,-190.606"/>
<ellipse fill="none" stroke="#2246a0" cx="156.46" cy="-358.487" rx="4.00002" ry="4.00002"/>
<polygon fill="#2246a0" stroke="#2246a0" points="123.343,-190.438 128.263,-180.638 123.555,-185.442 123.768,-180.447 123.768,-180.447 123.768,-180.447 123.555,-185.442 119.272,-180.256 123.343,-190.438 123.343,-190.438"/>
</g>
<!-- User&#45;&gt;Job -->
<g id="edge19" class="edge"><title>User&#45;&gt;Job</title>
<path fill="none" stroke="#234d4f" d="M178.595,-352.542C185.034,-333.912 195.394,-308.127 209,-288 217.051,-276.091 228.023,-264.591 237.895,-255.364"/>
<ellipse fill="none" stroke="#234d4f" cx="177.266" cy="-356.508" rx="4.00001" ry="4.00001"/>
<polygon fill="#234d4f" stroke="#234d4f" points="238.083,-255.195 248.519,-251.826 241.792,-251.841 245.5,-248.488 245.5,-248.488 245.5,-248.488 241.792,-251.841 242.482,-245.15 238.083,-255.195 238.083,-255.195"/>
</g>
<!-- ActiveRecord::Base -->
<g id="node11" class="node"><title>ActiveRecord::Base</title>
<ellipse fill="none" stroke="black" cx="334" cy="-468.5" rx="81.1422" ry="18"/>
<text text-anchor="middle" x="334" y="-464.3" font-family="Times,serif" font-size="14.00">ActiveRecord::Base</text>
</g>
<!-- ActiveRecord::Base&#45;&gt;Address -->
<g id="edge1" class="edge"><title>ActiveRecord::Base&#45;&gt;Address</title>
<path fill="none" stroke="black" d="M356.523,-451.048C389.746,-424.687 448,-369.546 448,-307 448,-307 448,-307 448,-161 448,-69.5956 316.157,-35.4522 249.977,-24.0712"/>
</g>
<!-- ActiveRecord::Base&#45;&gt;Company -->
<g id="edge3" class="edge"><title>ActiveRecord::Base&#45;&gt;Company</title>
<path fill="none" stroke="black" d="M326.295,-450.324C312.437,-419.432 283.467,-354.855 269.65,-324.053"/>
</g>
<!-- ActiveRecord::Base&#45;&gt;Con -->
<g id="edge4" class="edge"><title>ActiveRecord::Base&#45;&gt;Con</title>
<path fill="none" stroke="black" d="M338.958,-450.342C342.839,-435.969 347.918,-414.838 350,-396 358.971,-314.832 334.393,-218.277 323.212,-179.918"/>
</g>
<!-- ActiveRecord::Base&#45;&gt;Contact -->
<g id="edge6" class="edge"><title>ActiveRecord::Base&#45;&gt;Contact</title>
<path fill="none" stroke="black" d="M297.991,-452.233C281.663,-445.588 262.016,-437.971 244,-432 128.34,-393.668 0,-428.847 0,-307 0,-307 0,-307 0,-233 0,-179.244 47.0121,-129.78 73.8238,-105.941"/>
</g>
<!-- ActiveRecord::Base&#45;&gt;Event -->
<g id="edge8" class="edge"><title>ActiveRecord::Base&#45;&gt;Event</title>
<path fill="none" stroke="black" d="M296.96,-452.343C280.779,-445.864 261.531,-438.347 244,-432 196.029,-414.633 167.399,-435.41 135,-396 82.4181,-332.04 107.463,-221.583 119.667,-179.729"/>
</g>
<!-- ActiveRecord::Base&#45;&gt;Job -->
<g id="edge13" class="edge"><title>ActiveRecord::Base&#45;&gt;Job</title>
<path fill="none" stroke="black" d="M335.827,-450.412C338.612,-417.272 341.125,-342.721 315,-288 307.151,-271.56 292.036,-257.25 279.95,-247.658"/>
</g>
<!-- ActiveRecord::Base&#45;&gt;Pro -->
<g id="edge14" class="edge"><title>ActiveRecord::Base&#45;&gt;Pro</title>
<path fill="none" stroke="black" d="M342.794,-450.345C349.677,-436.149 358.908,-415.262 364,-396 384.825,-317.221 390.201,-219.322 391.556,-180.261"/>
</g>
<!-- ActiveRecord::Base&#45;&gt;Resume -->
<g id="edge15" class="edge"><title>ActiveRecord::Base&#45;&gt;Resume</title>
<path fill="none" stroke="black" d="M365.943,-451.882C401.057,-434.712 456.784,-407.465 489.228,-391.601"/>
</g>
<!-- ActiveRecord::Base&#45;&gt;User -->
<g id="edge21" class="edge"><title>ActiveRecord::Base&#45;&gt;User</title>
<path fill="none" stroke="black" d="M304.859,-451.678C272.259,-433.978 220.278,-405.755 191.629,-390.2"/>
</g>
</g>
</svg>
