<?xml version="1.0" encoding="UTF-8" standalone="no"?>
<!DOCTYPE svg PUBLIC "-//W3C//DTD SVG 1.1//EN"
 "http://www.w3.org/Graphics/SVG/1.1/DTD/svg11.dtd">
<!-- Generated by graphviz version 2.38.0 (20140413.2041)
 -->
<!-- Title: models_diagram Pages: 1 -->
<svg width="757pt" height="1463pt"
 viewBox="0.00 0.00 756.56 1463.00" xmlns="http://www.w3.org/2000/svg" xmlns:xlink="http://www.w3.org/1999/xlink">
<g id="graph0" class="graph" transform="scale(1 1) rotate(0) translate(4 1459)">
<title>models_diagram</title>
<polygon fill="white" stroke="none" points="-4,4 -4,-1459 752.565,-1459 752.565,4 -4,4"/>
<!-- _diagram_info -->
<g id="node1" class="node"><title>_diagram_info</title>
<text text-anchor="start" x="158.372" y="-1440.6" font-family="Times,serif" font-size="13.00">Models diagram</text>
<text text-anchor="start" x="158.372" y="-1427.6" font-family="Times,serif" font-size="13.00">Date: Mar 08 2015 &#45; 14:35</text>
<text text-anchor="start" x="158.372" y="-1414.6" font-family="Times,serif" font-size="13.00">Migration version: 20150308030541</text>
<text text-anchor="start" x="158.372" y="-1401.6" font-family="Times,serif" font-size="13.00">Generated by RailRoady 1.3.0</text>
<text text-anchor="start" x="158.372" y="-1388.6" font-family="Times,serif" font-size="13.00">http://railroady.prestonlee.com</text>
</g>
<!-- Address -->
<g id="node2" class="node"><title>Address</title>
<path fill="none" stroke="black" d="M243.554,-0.5C243.554,-0.5 352.565,-0.5 352.565,-0.5 358.565,-0.5 364.565,-6.5 364.565,-12.5 364.565,-12.5 364.565,-200.5 364.565,-200.5 364.565,-206.5 358.565,-212.5 352.565,-212.5 352.565,-212.5 243.554,-212.5 243.554,-212.5 237.554,-212.5 231.554,-206.5 231.554,-200.5 231.554,-200.5 231.554,-12.5 231.554,-12.5 231.554,-6.5 237.554,-0.5 243.554,-0.5"/>
<text text-anchor="middle" x="298.059" y="-197.3" font-family="Times,serif" font-size="14.00">Address</text>
<polyline fill="none" stroke="black" points="231.554,-190.5 364.565,-190.5 "/>
<text text-anchor="start" x="239.554" y="-175.3" font-family="Times,serif" font-size="14.00">id :integer</text>
<text text-anchor="start" x="239.554" y="-161.3" font-family="Times,serif" font-size="14.00">street1 :string</text>
<text text-anchor="start" x="239.554" y="-147.3" font-family="Times,serif" font-size="14.00">street2 :string</text>
<text text-anchor="start" x="239.554" y="-133.3" font-family="Times,serif" font-size="14.00">city :string</text>
<text text-anchor="start" x="239.554" y="-119.3" font-family="Times,serif" font-size="14.00">state :string</text>
<text text-anchor="start" x="239.554" y="-105.3" font-family="Times,serif" font-size="14.00">zipcode :string</text>
<text text-anchor="start" x="239.554" y="-91.3" font-family="Times,serif" font-size="14.00">full_address :string</text>
<text text-anchor="start" x="239.554" y="-77.3" font-family="Times,serif" font-size="14.00">created_at :datetime</text>
<text text-anchor="start" x="239.554" y="-63.3" font-family="Times,serif" font-size="14.00">updated_at :datetime</text>
<text text-anchor="start" x="239.554" y="-49.3" font-family="Times,serif" font-size="14.00">deleted_at :datetime</text>
<text text-anchor="start" x="239.554" y="-35.3" font-family="Times,serif" font-size="14.00">user_id :integer</text>
<text text-anchor="start" x="239.554" y="-21.3" font-family="Times,serif" font-size="14.00">contact_id :integer</text>
<text text-anchor="start" x="239.554" y="-7.3" font-family="Times,serif" font-size="14.00">job_id :integer</text>
</g>
<!-- Company -->
<g id="node3" class="node"><title>Company</title>
<path fill="none" stroke="black" d="M307.554,-968.5C307.554,-968.5 416.565,-968.5 416.565,-968.5 422.565,-968.5 428.565,-974.5 428.565,-980.5 428.565,-980.5 428.565,-1056.5 428.565,-1056.5 428.565,-1062.5 422.565,-1068.5 416.565,-1068.5 416.565,-1068.5 307.554,-1068.5 307.554,-1068.5 301.554,-1068.5 295.554,-1062.5 295.554,-1056.5 295.554,-1056.5 295.554,-980.5 295.554,-980.5 295.554,-974.5 301.554,-968.5 307.554,-968.5"/>
<text text-anchor="middle" x="362.059" y="-1053.3" font-family="Times,serif" font-size="14.00">Company</text>
<polyline fill="none" stroke="black" points="295.554,-1046.5 428.565,-1046.5 "/>
<text text-anchor="start" x="303.554" y="-1031.3" font-family="Times,serif" font-size="14.00">id :integer</text>
<text text-anchor="start" x="303.554" y="-1017.3" font-family="Times,serif" font-size="14.00">name :string</text>
<text text-anchor="start" x="303.554" y="-1003.3" font-family="Times,serif" font-size="14.00">created_at :datetime</text>
<text text-anchor="start" x="303.554" y="-989.3" font-family="Times,serif" font-size="14.00">updated_at :datetime</text>
<text text-anchor="start" x="303.554" y="-975.3" font-family="Times,serif" font-size="14.00">user_id :integer</text>
</g>
<!-- Job -->
<g id="node7" class="node"><title>Job</title>
<path fill="none" stroke="black" d="M307.554,-775.5C307.554,-775.5 416.565,-775.5 416.565,-775.5 422.565,-775.5 428.565,-781.5 428.565,-787.5 428.565,-787.5 428.565,-919.5 428.565,-919.5 428.565,-925.5 422.565,-931.5 416.565,-931.5 416.565,-931.5 307.554,-931.5 307.554,-931.5 301.554,-931.5 295.554,-925.5 295.554,-919.5 295.554,-919.5 295.554,-787.5 295.554,-787.5 295.554,-781.5 301.554,-775.5 307.554,-775.5"/>
<text text-anchor="middle" x="362.059" y="-916.3" font-family="Times,serif" font-size="14.00">Job</text>
<polyline fill="none" stroke="black" points="295.554,-909.5 428.565,-909.5 "/>
<text text-anchor="start" x="303.554" y="-894.3" font-family="Times,serif" font-size="14.00">id :integer</text>
<text text-anchor="start" x="303.554" y="-880.3" font-family="Times,serif" font-size="14.00">job_title :string</text>
<text text-anchor="start" x="303.554" y="-866.3" font-family="Times,serif" font-size="14.00">lead_source :string</text>
<text text-anchor="start" x="303.554" y="-852.3" font-family="Times,serif" font-size="14.00">short_summary :text</text>
<text text-anchor="start" x="303.554" y="-838.3" font-family="Times,serif" font-size="14.00">salary :integer</text>
<text text-anchor="start" x="303.554" y="-824.3" font-family="Times,serif" font-size="14.00">company_id :integer</text>
<text text-anchor="start" x="303.554" y="-810.3" font-family="Times,serif" font-size="14.00">created_at :datetime</text>
<text text-anchor="start" x="303.554" y="-796.3" font-family="Times,serif" font-size="14.00">updated_at :datetime</text>
<text text-anchor="start" x="303.554" y="-782.3" font-family="Times,serif" font-size="14.00">user_id :integer</text>
</g>
<!-- Company&#45;&gt;Job -->
<g id="edge2" class="edge"><title>Company&#45;&gt;Job</title>
<path fill="none" stroke="#e43f29" d="M362.059,-959.895C362.059,-954.038 362.059,-948.001 362.059,-941.92"/>
<ellipse fill="none" stroke="#e43f29" cx="362.059" cy="-964.152" rx="4" ry="4"/>
<polygon fill="#e43f29" stroke="#e43f29" points="362.06,-941.668 366.559,-931.668 362.059,-936.668 362.059,-931.668 362.059,-931.668 362.059,-931.668 362.059,-936.668 357.559,-931.668 362.06,-941.668 362.06,-941.668"/>
</g>
<!-- Con -->
<g id="node4" class="node"><title>Con</title>
<path fill="none" stroke="black" d="M357.04,-582.5C357.04,-582.5 431.078,-582.5 431.078,-582.5 437.078,-582.5 443.078,-588.5 443.078,-594.5 443.078,-594.5 443.078,-642.5 443.078,-642.5 443.078,-648.5 437.078,-654.5 431.078,-654.5 431.078,-654.5 357.04,-654.5 357.04,-654.5 351.04,-654.5 345.04,-648.5 345.04,-642.5 345.04,-642.5 345.04,-594.5 345.04,-594.5 345.04,-588.5 351.04,-582.5 357.04,-582.5"/>
<text text-anchor="middle" x="394.059" y="-639.3" font-family="Times,serif" font-size="14.00">Con</text>
<polyline fill="none" stroke="black" points="345.04,-632.5 443.078,-632.5 "/>
<text text-anchor="start" x="353.04" y="-617.3" font-family="Times,serif" font-size="14.00">id :integer</text>
<text text-anchor="start" x="353.04" y="-603.3" font-family="Times,serif" font-size="14.00">job_id :integer</text>
<text text-anchor="start" x="353.04" y="-589.3" font-family="Times,serif" font-size="14.00">con :string</text>
</g>
<!-- Contact -->
<g id="node5" class="node"><title>Contact</title>
<path fill="none" stroke="black" d="M58.599,-249.5C58.599,-249.5 185.52,-249.5 185.52,-249.5 191.52,-249.5 197.52,-255.5 197.52,-261.5 197.52,-261.5 197.52,-449.5 197.52,-449.5 197.52,-455.5 191.52,-461.5 185.52,-461.5 185.52,-461.5 58.599,-461.5 58.599,-461.5 52.599,-461.5 46.599,-455.5 46.599,-449.5 46.599,-449.5 46.599,-261.5 46.599,-261.5 46.599,-255.5 52.599,-249.5 58.599,-249.5"/>
<text text-anchor="middle" x="122.059" y="-446.3" font-family="Times,serif" font-size="14.00">Contact</text>
<polyline fill="none" stroke="black" points="46.599,-439.5 197.52,-439.5 "/>
<text text-anchor="start" x="54.599" y="-424.3" font-family="Times,serif" font-size="14.00">id :integer</text>
<text text-anchor="start" x="54.599" y="-410.3" font-family="Times,serif" font-size="14.00">event_id :integer</text>
<text text-anchor="start" x="54.599" y="-396.3" font-family="Times,serif" font-size="14.00">user_id :integer</text>
<text text-anchor="start" x="54.599" y="-382.3" font-family="Times,serif" font-size="14.00">first_name :string</text>
<text text-anchor="start" x="54.599" y="-368.3" font-family="Times,serif" font-size="14.00">last_name :string</text>
<text text-anchor="start" x="54.599" y="-354.3" font-family="Times,serif" font-size="14.00">title :string</text>
<text text-anchor="start" x="54.599" y="-340.3" font-family="Times,serif" font-size="14.00">email :string</text>
<text text-anchor="start" x="54.599" y="-326.3" font-family="Times,serif" font-size="14.00">phone :string</text>
<text text-anchor="start" x="54.599" y="-312.3" font-family="Times,serif" font-size="14.00">mobile :string</text>
<text text-anchor="start" x="54.599" y="-298.3" font-family="Times,serif" font-size="14.00">do_not_call :boolean</text>
<text text-anchor="start" x="54.599" y="-284.3" font-family="Times,serif" font-size="14.00">background_info :string</text>
<text text-anchor="start" x="54.599" y="-270.3" font-family="Times,serif" font-size="14.00">created_at :datetime</text>
<text text-anchor="start" x="54.599" y="-256.3" font-family="Times,serif" font-size="14.00">updated_at :datetime</text>
</g>
<!-- Contact&#45;&gt;Address -->
<g id="edge5" class="edge"><title>Contact&#45;&gt;Address</title>
<path fill="none" stroke="#509b7a" d="M201.786,-242.612C209.649,-231.575 217.602,-220.414 225.39,-209.485"/>
<ellipse fill="none" stroke="#509b7a" cx="199.276" cy="-246.134" rx="4.00002" ry="4.00002"/>
<polygon fill="#509b7a" stroke="#509b7a" points="225.506,-209.323 234.973,-203.79 228.407,-205.251 231.309,-201.179 231.309,-201.179 231.309,-201.179 228.407,-205.251 227.644,-198.567 225.506,-209.323 225.506,-209.323"/>
</g>
<!-- Event -->
<g id="node6" class="node"><title>Event</title>
<path fill="none" stroke="black" d="M108.671,-498.5C108.671,-498.5 239.448,-498.5 239.448,-498.5 245.448,-498.5 251.448,-504.5 251.448,-510.5 251.448,-510.5 251.448,-726.5 251.448,-726.5 251.448,-732.5 245.448,-738.5 239.448,-738.5 239.448,-738.5 108.671,-738.5 108.671,-738.5 102.671,-738.5 96.6712,-732.5 96.6712,-726.5 96.6712,-726.5 96.6712,-510.5 96.6712,-510.5 96.6712,-504.5 102.671,-498.5 108.671,-498.5"/>
<text text-anchor="middle" x="174.059" y="-723.3" font-family="Times,serif" font-size="14.00">Event</text>
<polyline fill="none" stroke="black" points="96.6712,-716.5 251.448,-716.5 "/>
<text text-anchor="start" x="104.671" y="-701.3" font-family="Times,serif" font-size="14.00">id :integer</text>
<text text-anchor="start" x="104.671" y="-687.3" font-family="Times,serif" font-size="14.00">research :text</text>
<text text-anchor="start" x="104.671" y="-673.3" font-family="Times,serif" font-size="14.00">key_findings :text</text>
<text text-anchor="start" x="104.671" y="-659.3" font-family="Times,serif" font-size="14.00">takeaways :text</text>
<text text-anchor="start" x="104.671" y="-645.3" font-family="Times,serif" font-size="14.00">outcome :text</text>
<text text-anchor="start" x="104.671" y="-631.3" font-family="Times,serif" font-size="14.00">thankyou_note :boolean</text>
<text text-anchor="start" x="104.671" y="-617.3" font-family="Times,serif" font-size="14.00">follow_up :boolean</text>
<text text-anchor="start" x="104.671" y="-603.3" font-family="Times,serif" font-size="14.00">referral :boolean</text>
<text text-anchor="start" x="104.671" y="-589.3" font-family="Times,serif" font-size="14.00">feedback :boolean</text>
<text text-anchor="start" x="104.671" y="-575.3" font-family="Times,serif" font-size="14.00">business_card :boolean</text>
<text text-anchor="start" x="104.671" y="-561.3" font-family="Times,serif" font-size="14.00">created_at :datetime</text>
<text text-anchor="start" x="104.671" y="-547.3" font-family="Times,serif" font-size="14.00">updated_at :datetime</text>
<text text-anchor="start" x="104.671" y="-533.3" font-family="Times,serif" font-size="14.00">job_id :integer</text>
<text text-anchor="start" x="104.671" y="-519.3" font-family="Times,serif" font-size="14.00">user_id :integer</text>
<text text-anchor="start" x="104.671" y="-505.3" font-family="Times,serif" font-size="14.00">interview_date :datetime</text>
</g>
<!-- Event&#45;&gt;Contact -->
<g id="edge7" class="edge"><title>Event&#45;&gt;Contact</title>
<path fill="none" stroke="#754a34" d="M148.739,-490.413C147.516,-484.27 146.29,-478.118 145.073,-472.01"/>
<ellipse fill="none" stroke="#754a34" cx="149.56" cy="-494.534" rx="4.00001" ry="4.00001"/>
<polygon fill="#754a34" stroke="#754a34" points="144.989,-471.589 147.448,-460.902 144.012,-466.685 143.035,-461.782 143.035,-461.782 143.035,-461.782 144.012,-466.685 138.622,-462.661 144.989,-471.589 144.989,-471.589"/>
</g>
<!-- Job&#45;&gt;Address -->
<g id="edge10" class="edge"><title>Job&#45;&gt;Address</title>
<path fill="none" stroke="#59f58b" d="M340.956,-767.317C339.075,-757.805 337.384,-748.223 336.059,-739 310.2,-558.948 301.895,-347.564 299.255,-220.742"/>
<ellipse fill="none" stroke="#59f58b" cx="341.78" cy="-771.361" rx="4.00001" ry="4.00001"/>
<ellipse fill="#59f58b" stroke="#59f58b" cx="299.17" cy="-216.511" rx="4" ry="4"/>
</g>
<!-- Job&#45;&gt;Con -->
<g id="edge12" class="edge"><title>Job&#45;&gt;Con</title>
<path fill="none" stroke="#049104" d="M373.799,-767.02C378.557,-732.379 383.856,-693.791 387.842,-664.771"/>
<ellipse fill="none" stroke="#049104" cx="373.215" cy="-771.275" rx="4.00001" ry="4.00001"/>
<polygon fill="#049104" stroke="#049104" points="387.887,-664.445 393.705,-655.15 388.567,-659.492 389.247,-654.538 389.247,-654.538 389.247,-654.538 388.567,-659.492 384.789,-653.926 387.887,-664.445 387.887,-664.445"/>
</g>
<!-- Job&#45;&gt;Event -->
<g id="edge9" class="edge"><title>Job&#45;&gt;Event</title>
<path fill="none" stroke="#4f865b" d="M294.625,-768.925C282.757,-754.216 270.273,-738.744 258.02,-723.557"/>
<ellipse fill="none" stroke="#4f865b" cx="297.207" cy="-772.125" rx="4.00002" ry="4.00002"/>
<polygon fill="#4f865b" stroke="#4f865b" points="257.917,-723.429 255.139,-712.821 254.777,-719.538 251.637,-715.647 251.637,-715.647 251.637,-715.647 254.777,-719.538 248.135,-718.473 257.917,-723.429 257.917,-723.429"/>
</g>
<!-- Pro -->
<g id="node8" class="node"><title>Pro</title>
<path fill="none" stroke="black" d="M473.04,-582.5C473.04,-582.5 547.078,-582.5 547.078,-582.5 553.078,-582.5 559.078,-588.5 559.078,-594.5 559.078,-594.5 559.078,-642.5 559.078,-642.5 559.078,-648.5 553.078,-654.5 547.078,-654.5 547.078,-654.5 473.04,-654.5 473.04,-654.5 467.04,-654.5 461.04,-648.5 461.04,-642.5 461.04,-642.5 461.04,-594.5 461.04,-594.5 461.04,-588.5 467.04,-582.5 473.04,-582.5"/>
<text text-anchor="middle" x="510.059" y="-639.3" font-family="Times,serif" font-size="14.00">Pro</text>
<polyline fill="none" stroke="black" points="461.04,-632.5 559.078,-632.5 "/>
<text text-anchor="start" x="469.04" y="-617.3" font-family="Times,serif" font-size="14.00">id :integer</text>
<text text-anchor="start" x="469.04" y="-603.3" font-family="Times,serif" font-size="14.00">job_id :integer</text>
<text text-anchor="start" x="469.04" y="-589.3" font-family="Times,serif" font-size="14.00">pro :string</text>
</g>
<!-- Job&#45;&gt;Pro -->
<g id="edge11" class="edge"><title>Job&#45;&gt;Pro</title>
<path fill="none" stroke="#e674d2" d="M431.608,-768.929C438.828,-759.061 445.802,-748.955 452.059,-739 467.052,-715.147 480.944,-686.846 491.371,-663.774"/>
<ellipse fill="none" stroke="#e674d2" cx="429.214" cy="-772.161" rx="4.00002" ry="4.00002"/>
<polygon fill="#e674d2" stroke="#e674d2" points="491.407,-663.694 499.588,-656.393 493.442,-659.127 495.478,-654.561 495.478,-654.561 495.478,-654.561 493.442,-659.127 491.368,-652.729 491.407,-663.694 491.407,-663.694"/>
</g>
<!-- Resume -->
<g id="node9" class="node"><title>Resume</title>
<path fill="none" stroke="black" d="M627.554,-1168.5C627.554,-1168.5 736.565,-1168.5 736.565,-1168.5 742.565,-1168.5 748.565,-1174.5 748.565,-1180.5 748.565,-1180.5 748.565,-1270.5 748.565,-1270.5 748.565,-1276.5 742.565,-1282.5 736.565,-1282.5 736.565,-1282.5 627.554,-1282.5 627.554,-1282.5 621.554,-1282.5 615.554,-1276.5 615.554,-1270.5 615.554,-1270.5 615.554,-1180.5 615.554,-1180.5 615.554,-1174.5 621.554,-1168.5 627.554,-1168.5"/>
<text text-anchor="middle" x="682.059" y="-1267.3" font-family="Times,serif" font-size="14.00">Resume</text>
<polyline fill="none" stroke="black" points="615.554,-1260.5 748.565,-1260.5 "/>
<text text-anchor="start" x="623.554" y="-1245.3" font-family="Times,serif" font-size="14.00">id :integer</text>
<text text-anchor="start" x="623.554" y="-1231.3" font-family="Times,serif" font-size="14.00">created_at :datetime</text>
<text text-anchor="start" x="623.554" y="-1217.3" font-family="Times,serif" font-size="14.00">updated_at :datetime</text>
<text text-anchor="start" x="623.554" y="-1203.3" font-family="Times,serif" font-size="14.00">user_id :integer</text>
<text text-anchor="start" x="623.554" y="-1189.3" font-family="Times,serif" font-size="14.00">job_id :integer</text>
<text text-anchor="start" x="623.554" y="-1175.3" font-family="Times,serif" font-size="14.00">url :string</text>
</g>
<!-- User -->
<g id="node10" class="node"><title>User</title>
<path fill="none" stroke="black" d="M157.782,-1105.5C157.782,-1105.5 338.337,-1105.5 338.337,-1105.5 344.337,-1105.5 350.337,-1111.5 350.337,-1117.5 350.337,-1117.5 350.337,-1333.5 350.337,-1333.5 350.337,-1339.5 344.337,-1345.5 338.337,-1345.5 338.337,-1345.5 157.782,-1345.5 157.782,-1345.5 151.782,-1345.5 145.782,-1339.5 145.782,-1333.5 145.782,-1333.5 145.782,-1117.5 145.782,-1117.5 145.782,-1111.5 151.782,-1105.5 157.782,-1105.5"/>
<text text-anchor="middle" x="248.059" y="-1330.3" font-family="Times,serif" font-size="14.00">User</text>
<polyline fill="none" stroke="black" points="145.782,-1323.5 350.337,-1323.5 "/>
<text text-anchor="start" x="153.782" y="-1308.3" font-family="Times,serif" font-size="14.00">id :integer</text>
<text text-anchor="start" x="153.782" y="-1294.3" font-family="Times,serif" font-size="14.00">username :string</text>
<text text-anchor="start" x="153.782" y="-1280.3" font-family="Times,serif" font-size="14.00">email :string</text>
<text text-anchor="start" x="153.782" y="-1266.3" font-family="Times,serif" font-size="14.00">encrypted_password :string</text>
<text text-anchor="start" x="153.782" y="-1252.3" font-family="Times,serif" font-size="14.00">reset_password_token :string</text>
<text text-anchor="start" x="153.782" y="-1238.3" font-family="Times,serif" font-size="14.00">reset_password_sent_at :datetime</text>
<text text-anchor="start" x="153.782" y="-1224.3" font-family="Times,serif" font-size="14.00">remember_created_at :datetime</text>
<text text-anchor="start" x="153.782" y="-1210.3" font-family="Times,serif" font-size="14.00">sign_in_count :integer</text>
<text text-anchor="start" x="153.782" y="-1196.3" font-family="Times,serif" font-size="14.00">current_sign_in_at :datetime</text>
<text text-anchor="start" x="153.782" y="-1182.3" font-family="Times,serif" font-size="14.00">last_sign_in_at :datetime</text>
<text text-anchor="start" x="153.782" y="-1168.3" font-family="Times,serif" font-size="14.00">current_sign_in_ip :string</text>
<text text-anchor="start" x="153.782" y="-1154.3" font-family="Times,serif" font-size="14.00">last_sign_in_ip :string</text>
<text text-anchor="start" x="153.782" y="-1140.3" font-family="Times,serif" font-size="14.00">authentication_token :string</text>
<text text-anchor="start" x="153.782" y="-1126.3" font-family="Times,serif" font-size="14.00">created_at :datetime</text>
<text text-anchor="start" x="153.782" y="-1112.3" font-family="Times,serif" font-size="14.00">updated_at :datetime</text>
</g>
<!-- User&#45;&gt;Address -->
<g id="edge16" class="edge"><title>User&#45;&gt;Address</title>
<path fill="none" stroke="#f471d2" d="M252.21,-1097.22C253.639,-1055.99 255.32,-1010.05 257.059,-968 268.138,-700.178 283.8,-385.598 292.198,-220.999"/>
<ellipse fill="none" stroke="#f471d2" cx="252.066" cy="-1101.41" rx="4" ry="4"/>
<ellipse fill="#f471d2" stroke="#f471d2" cx="292.413" cy="-216.786" rx="4" ry="4"/>
</g>
<!-- User&#45;&gt;Company -->
<g id="edge18" class="edge"><title>User&#45;&gt;Company</title>
<path fill="none" stroke="#3ed59a" d="M318.372,-1098.06C322.316,-1090.97 326.169,-1084.04 329.851,-1077.42"/>
<ellipse fill="none" stroke="#3ed59a" cx="316.318" cy="-1101.75" rx="4.00002" ry="4.00002"/>
<polygon fill="#3ed59a" stroke="#3ed59a" points="329.898,-1077.33 338.691,-1070.78 332.328,-1072.96 334.758,-1068.59 334.758,-1068.59 334.758,-1068.59 332.328,-1072.96 330.825,-1066.41 329.898,-1077.33 329.898,-1077.33"/>
</g>
<!-- User&#45;&gt;Contact -->
<g id="edge17" class="edge"><title>User&#45;&gt;Contact</title>
<path fill="none" stroke="#fd2e53" d="M194.029,-1098.01C155.92,-1001.62 108.212,-864.539 88.0594,-739 71.082,-633.243 75.4596,-604.367 88.0594,-498 89.1507,-488.787 90.6284,-479.306 92.3593,-469.824"/>
<ellipse fill="none" stroke="#fd2e53" cx="195.511" cy="-1101.74" rx="4.00001" ry="4.00001"/>
<ellipse fill="#fd2e53" stroke="#fd2e53" cx="93.124" cy="-465.794" rx="4.00001" ry="4.00001"/>
</g>
<!-- User&#45;&gt;Event -->
<g id="edge20" class="edge"><title>User&#45;&gt;Event</title>
<path fill="none" stroke="#656ad9" d="M219.813,-1097.42C218.073,-1087.83 216.461,-1078.27 215.059,-1069 198.83,-961.644 188.158,-838.824 181.782,-748.727"/>
<ellipse fill="none" stroke="#656ad9" cx="220.576" cy="-1101.55" rx="4.00001" ry="4.00001"/>
<polygon fill="#656ad9" stroke="#656ad9" points="181.781,-748.71 185.572,-738.421 181.432,-743.723 181.083,-738.735 181.083,-738.735 181.083,-738.735 181.432,-743.723 176.594,-739.049 181.781,-748.71 181.781,-748.71"/>
</g>
<!-- User&#45;&gt;Job -->
<g id="edge19" class="edge"><title>User&#45;&gt;Job</title>
<path fill="none" stroke="#cd3ded" d="M255.7,-1097.09C261.152,-1054.97 270.404,-1008.54 286.059,-968 289.616,-958.792 294.025,-949.577 298.915,-940.602"/>
<ellipse fill="none" stroke="#cd3ded" cx="255.187" cy="-1101.21" rx="4.00001" ry="4.00001"/>
<polygon fill="#cd3ded" stroke="#cd3ded" points="299.021,-940.415 307.867,-933.935 301.487,-936.065 303.953,-931.716 303.953,-931.716 303.953,-931.716 301.487,-936.065 300.038,-929.496 299.021,-940.415 299.021,-940.415"/>
</g>
<!-- ActiveRecord::Base -->
<g id="node11" class="node"><title>ActiveRecord::Base</title>
<ellipse fill="none" stroke="black" cx="457.059" cy="-1418.5" rx="81.1422" ry="18"/>
<text text-anchor="middle" x="457.059" y="-1414.3" font-family="Times,serif" font-size="14.00">ActiveRecord::Base</text>
</g>
<!-- ActiveRecord::Base&#45;&gt;Address -->
<g id="edge1" class="edge"><title>ActiveRecord::Base&#45;&gt;Address</title>
<path fill="none" stroke="black" d="M486.275,-1401.5C505.998,-1389.07 530.771,-1369.93 544.059,-1346 615.116,-1218.04 587.059,-1165.86 587.059,-1019.5 587.059,-1019.5 587.059,-1019.5 587.059,-617.5 587.059,-438.131 450.073,-264.005 364.725,-172.923"/>
</g>
<!-- ActiveRecord::Base&#45;&gt;Company -->
<g id="edge3" class="edge"><title>ActiveRecord::Base&#45;&gt;Company</title>
<path fill="none" stroke="black" d="M452.977,-1400.4C439.357,-1343.34 395.133,-1158.06 373.792,-1068.65"/>
</g>
<!-- ActiveRecord::Base&#45;&gt;Con -->
<g id="edge4" class="edge"><title>ActiveRecord::Base&#45;&gt;Con</title>
<path fill="none" stroke="black" d="M464.484,-1400.56C470.3,-1386.32 477.914,-1365.25 481.059,-1346 522.089,-1094.83 489.824,-1024.18 438.059,-775 429.357,-733.108 415.409,-685.946 405.553,-654.658"/>
</g>
<!-- ActiveRecord::Base&#45;&gt;Contact -->
<g id="edge6" class="edge"><title>ActiveRecord::Base&#45;&gt;Contact</title>
<path fill="none" stroke="black" d="M423.984,-1402.04C407.264,-1394.85 386.453,-1386.84 367.059,-1382 298.269,-1364.85 98.7952,-1397.49 50.0594,-1346 -49.8607,-1240.43 31.0594,-1164.86 31.0594,-1019.5 31.0594,-1019.5 31.0594,-1019.5 31.0594,-852.5 31.0594,-693.843 37.562,-652.635 73.0594,-498 75.7932,-486.091 79.1748,-473.785 82.8742,-461.63"/>
</g>
<!-- ActiveRecord::Base&#45;&gt;Event -->
<g id="edge8" class="edge"><title>ActiveRecord::Base&#45;&gt;Event</title>
<path fill="none" stroke="black" d="M423.045,-1402.03C406.452,-1395.01 386.023,-1387.16 367.059,-1382 317.138,-1368.43 170.693,-1385.31 137.059,-1346 -7.44942,-1177.11 64.2297,-897.061 123.141,-738.521"/>
</g>
<!-- ActiveRecord::Base&#45;&gt;Job -->
<g id="edge13" class="edge"><title>ActiveRecord::Base&#45;&gt;Job</title>
<path fill="none" stroke="black" d="M459.597,-1400.18C467.873,-1339.09 490.634,-1128.72 438.059,-968 434.004,-955.603 428.184,-943.295 421.543,-931.608"/>
</g>
<!-- ActiveRecord::Base&#45;&gt;Pro -->
<g id="edge14" class="edge"><title>ActiveRecord::Base&#45;&gt;Pro</title>
<path fill="none" stroke="black" d="M474.02,-1400.76C486.396,-1387.29 502.162,-1367.16 509.059,-1346 591.729,-1092.37 538.482,-761.944 517.473,-654.733"/>
</g>
<!-- ActiveRecord::Base&#45;&gt;Resume -->
<g id="edge15" class="edge"><title>ActiveRecord::Base&#45;&gt;Resume</title>
<path fill="none" stroke="black" d="M499.536,-1403.1C530.168,-1391.22 571.209,-1372.07 601.059,-1346 621.351,-1328.27 638.884,-1304.36 652.397,-1282.59"/>
</g>
<!-- ActiveRecord::Base&#45;&gt;User -->
<g id="edge21" class="edge"><title>ActiveRecord::Base&#45;&gt;User</title>
<path fill="none" stroke="black" d="M438.878,-1400.88C418.667,-1382.41 384.378,-1351.08 350.394,-1320.02"/>
</g>
</g>
</svg>
